<?xml version="1.0" encoding="UTF-8" standalone="no"?>
<!-- Created with Inkscape (http://www.inkscape.org/) -->

<svg
   width="270mm"
   height="60mm"
   viewBox="0 0 270 60"
   version="1.1"
   id="svg1"
   xml:space="preserve"
   inkscape:version="1.4.2 (f4327f4, 2025-05-13)"
   sodipodi:docname="documento-1.svg"
   xmlns:inkscape="http://www.inkscape.org/namespaces/inkscape"
   xmlns:sodipodi="http://sodipodi.sourceforge.net/DTD/sodipodi-0.dtd"
   xmlns="http://www.w3.org/2000/svg"
   xmlns:svg="http://www.w3.org/2000/svg"><sodipodi:namedview
     id="namedview1"
     pagecolor="#505050"
     bordercolor="#eeeeee"
     borderopacity="1"
     inkscape:showpageshadow="0"
     inkscape:pageopacity="0"
     inkscape:pagecheckerboard="0"
     inkscape:deskcolor="#505050"
     inkscape:document-units="mm"
     inkscape:zoom="0.68862935"
     inkscape:cx="397.16576"
     inkscape:cy="212.74144"
     inkscape:window-width="1920"
     inkscape:window-height="991"
     inkscape:window-x="1341"
     inkscape:window-y="1032"
     inkscape:window-maximized="1"
     inkscape:current-layer="layer1" /><defs
     id="defs1" /><g
     inkscape:label="Camada 1"
     inkscape:groupmode="layer"
     id="layer1"><path
       style="fill:#145668;stroke:none"
       d="M 28.469167,2.5460368 C 21.334427,2.8268013 17.328561,10.036551 12.857731,14.55945 c -2.734552,2.766401 -6.1111429,4.956787 -8.6138612,7.9375 -1.9285784,2.29692 -3.39156793,5.112559 -2.9473684,8.202083 0.9456128,6.576988 8.6313478,10.908103 12.8747546,15.345832 4.043834,4.229022 8.153945,10.695309 14.827078,10.385089 6.523414,-0.303244 10.183999,-6.439141 14.291379,-10.649672 3.369743,-3.454376 7.431842,-6.271855 10.456758,-10.054166 1.803273,-2.254788 2.653968,-5.065453 2.115645,-7.9375 C 54.700494,21.591143 47.150576,17.201004 43.02513,12.97195 39.084584,8.932436 34.94552,2.2911751 28.469167,2.5460368 m -0.529166,2.0396848 c 6.070733,-0.8025672 10.712919,6.7955474 14.276881,10.5018774 3.753962,3.903912 11.047843,7.951323 11.836228,13.75935 0.376063,2.770438 -1.599705,5.492301 -3.400184,7.383626 -2.877586,3.022796 -6.34048,5.426477 -9.195494,8.491374 -3.246676,3.485349 -6.744743,9.119953 -11.929931,9.74078 C 23.211468,55.218949 19.021297,48.020633 15.23898,44.192782 11.460379,40.368694 3.9390486,35.985612 3.2565818,30.169866 2.9268923,27.360364 4.9529739,24.655151 6.7837472,22.76255 9.3411481,20.118768 12.435581,18.054149 14.951737,15.3532 18.57626,11.462482 22.162429,5.3495315 27.940001,4.5857216 M 266.32957,16.9407 v 25.929165 h 3.70417 V 16.9407 h -3.70417 m -87.84166,19.843749 c -5.07214,3.34114 -11.83603,4.312075 -14.40694,-2.910417 -1.98371,-5.572883 2.09753,-12.548797 8.32152,-12.421124 2.45184,0.05029 7.05258,4.121082 8.11063,-0.01042 0.287,-1.120652 -1.49696,-1.990431 -2.28979,-2.387176 -2.63708,-1.319639 -5.85015,-1.679743 -8.73125,-1.107119 -11.56821,2.299197 -14.91955,19.543169 -3.175,24.368004 3.04584,1.251264 6.92779,1.631086 10.05416,0.430158 1.18927,-0.456852 4.5594,-1.90594 4.14188,-3.58066 -0.229,-0.918613 -1.38433,-1.739865 -2.02521,-2.38125 M 68.950415,18.263617 v 24.606248 h 4.233333 l -0.264583,-9.789582 c 5.71639,-1.360964 5.616065,6.619298 9.096077,9.365351 1.130697,0.892226 3.559246,0.424231 4.926839,0.424231 L 80.856665,32.551116 C 86.288616,30.410097 88.502418,22.782268 82.708748,19.4181 78.933954,17.226212 73.1564,18.263617 68.950415,18.263617 m 155.310405,2.910416 v 5.027083 h -3.175 v 3.175 h 3.175 c 0,3.484784 -1.0037,8.828757 0.92135,11.895623 1.02779,1.637433 5.46539,3.347083 7.00881,1.402757 0.58116,-0.732158 0.27193,-2.361806 0.27193,-3.244214 -0.97811,0.07719 -2.21056,0.49259 -3.11559,-0.04757 -2.21053,-1.3193 -1.11775,-7.779225 -1.11775,-10.006592 h 4.23334 v -3.175 h -4.23334 v -5.027083 h -3.96875 m -151.341655,7.9375 v -7.14375 c 2.176983,-0.643501 6.187106,-0.665948 7.863804,1.114887 3.446059,3.66008 -1.557503,6.292235 -4.688804,6.293446 -1.089396,4.2e-4 -2.126727,0.04528 -3.175,-0.264583 m 166.687495,-0.79375 h -0.26459 c -0.0231,-1.950818 -3.23946,-3.456911 -3.88464,-1.283723 -0.43297,1.458373 -0.0841,3.472107 -0.0841,4.987889 v 10.847916 h 4.23334 c 0,-4.391301 -1.76961,-14.708694 5.55625,-12.964582 v -3.96875 c -2.22206,-0.328291 -4.53204,0.204865 -5.55625,2.38125 M 95.673331,26.073524 c -5.9955,1.281042 -8.583294,8.739453 -5.083023,13.621341 2.245559,3.131915 6.204611,4.16089 9.845522,3.363022 5.66645,-1.241736 8.41693,-8.312574 5.29983,-13.152604 C 103.59697,26.584458 99.447955,25.267 95.673331,26.073524 m 20.637499,-0.01408 c -11.26646,2.031433 -7.59933,19.167434 3.43958,17.216891 11.91651,-2.105605 8.34839,-19.342359 -3.43958,-17.216891 m 17.72708,2.258341 v -2.116667 l -3.69682,0.424231 -0.27193,4.338269 v 11.906249 h 3.96875 c 0,-3.426599 -0.74015,-7.876941 0.56734,-11.112499 0.67064,-1.659556 2.67461,-3.128249 4.45566,-2.129117 3.3477,1.877986 1.85617,9.982271 1.85617,13.241616 h 4.23333 c 0,-3.285765 -0.77337,-7.703906 0.21273,-10.847916 0.50499,-1.610076 2.23837,-3.156558 4.01959,-2.582755 3.93248,1.266799 2.38226,10.271885 2.38226,13.430671 h 3.96875 c 0,-4.152976 0.91061,-9.559122 -0.55406,-13.493749 -1.9776,-5.312498 -8.09743,-3.634016 -11.0876,-0.529167 -2.20142,-4.231395 -7.13319,-3.316367 -10.05417,-0.529166 m 56.09167,-2.257534 c -11.21397,2.115682 -7.34218,19.204011 3.70416,17.21589 6.66064,-1.198796 10.04167,-9.506008 5.24267,-14.68234 -2.22459,-2.399498 -5.80686,-3.125955 -8.94683,-2.53355 m 17.99166,2.257534 c -0.0307,-2.58781 -1.87945,-2.116667 -3.96875,-2.116667 v 16.668749 h 3.96875 c 0,-3.292047 -0.77458,-7.738706 0.41362,-10.847916 0.54885,-1.436217 2.11389,-3.107869 3.81971,-2.712996 4.27452,0.989474 2.64584,10.351741 2.64584,13.560912 h 4.23333 c 0,-4.169545 0.75217,-9.239713 -0.67431,-13.229166 -1.76516,-4.936617 -7.28134,-4.405577 -10.43819,-1.322916 m 44.18542,-2.244259 c -11.42847,2.438191 -6.96053,19.519899 4.23333,17.056839 11.47998,-2.526025 7.18472,-19.492801 -4.23333,-17.056839 M 96.731664,29.47942 c 6.712756,-1.462087 8.602106,8.937261 2.116666,10.262197 -6.235092,1.273807 -8.06275,-8.967088 -2.116666,-10.262197 m 20.372916,-0.01613 c 6.84248,-1.235002 8.43736,9.287514 1.85208,10.368568 -6.0912,0.999939 -7.80735,-9.293699 -1.85208,-10.368568 m 73.81875,0.01715 c 6.68258,-1.525117 8.75539,8.642511 2.40492,10.255672 -6.24728,1.586934 -8.38145,-8.891689 -2.40492,-10.255672 m 62.17708,0 c 6.67391,-1.533417 8.75156,8.85566 2.38125,10.29711 -6.2076,1.40463 -8.2225,-8.955009 -2.38125,-10.29711 z"
       id="path1" /></g></svg>
